<?xml version="1.0" encoding="UTF-8" standalone="no"?>
<!-- Created with Inkscape (http://www.inkscape.org/) -->

<svg
   xmlns:dc="http://purl.org/dc/elements/1.1/"
   xmlns:cc="http://creativecommons.org/ns#"
   xmlns:rdf="http://www.w3.org/1999/02/22-rdf-syntax-ns#"
   xmlns:svg="http://www.w3.org/2000/svg"
   xmlns="http://www.w3.org/2000/svg"
   xmlns:sodipodi="http://sodipodi.sourceforge.net/DTD/sodipodi-0.dtd"
   xmlns:inkscape="http://www.inkscape.org/namespaces/inkscape"
   width="1040"
   height="1040"
   viewBox="0 0 1040 1040"
   id="svg2"
   version="1.1"
   inkscape:version="0.91 r13725"
   sodipodi:docname="brkfstTable.svg">
  <defs
     id="defs4" />
  <sodipodi:namedview
     id="base"
     pagecolor="#ffffff"
     bordercolor="#666666"
     borderopacity="1.0"
     inkscape:pageopacity="0.0"
     inkscape:pageshadow="2"
     inkscape:zoom="0.5"
     inkscape:cx="-27.735428"
     inkscape:cy="407.44719"
     inkscape:document-units="px"
     inkscape:current-layer="layer1"
     showgrid="true"
     units="px"
     inkscape:snap-bbox="true"
     inkscape:bbox-nodes="true"
     fit-margin-top="0"
     fit-margin-left="0"
     fit-margin-right="0"
     fit-margin-bottom="0"
     inkscape:window-width="1920"
     inkscape:window-height="1017"
     inkscape:window-x="-8"
     inkscape:window-y="-8"
     inkscape:window-maximized="1">
    <inkscape:grid
       type="xygrid"
       id="grid4136"
       originx="0"
       originy="2.2617187e-005" />
  </sodipodi:namedview>
  <metadata
     id="metadata7">
    <rdf:RDF>
      <cc:Work
         rdf:about="">
        <dc:format>image/svg+xml</dc:format>
        <dc:type
           rdf:resource="http://purl.org/dc/dcmitype/StillImage" />
        <dc:title></dc:title>
      </cc:Work>
    </rdf:RDF>
  </metadata>
  <g
     inkscape:label="Layer 1"
     inkscape:groupmode="layer"
     id="layer1"
     transform="translate(0,-12.36216)">
    <rect
       style="opacity:1;fill:#cde9cd;fill-opacity:1;stroke:none;stroke-width:5;stroke-linecap:round;stroke-linejoin:round;stroke-miterlimit:4;stroke-dasharray:none;stroke-opacity:1"
       id="rect4138"
       width="1040"
       height="1039.9999"
       x="-1040"
       y="-1052.3621"
       transform="scale(-1,-1)" />
    <path
       style="opacity:1;fill:#00b6a9;fill-opacity:1;stroke:none;stroke-width:5;stroke-linecap:round;stroke-linejoin:round;stroke-miterlimit:4;stroke-dasharray:none;stroke-opacity:1"
       d="m 320,412.36214 80,0 0,-80 -80,0 0,80 z"
       id="path4453"
       inkscape:connector-curvature="0" />
    <path
       style="opacity:1;fill:#00b6a9;fill-opacity:1;stroke:none;stroke-width:5;stroke-linecap:round;stroke-linejoin:round;stroke-miterlimit:4;stroke-dasharray:none;stroke-opacity:1"
       d="m 320,492.36214 80,0 0,-80 -80,0 0,80 z"
       id="path4451"
       inkscape:connector-curvature="0" />
    <path
       style="opacity:1;fill:#00b6a9;fill-opacity:1;stroke:none;stroke-width:5;stroke-linecap:round;stroke-linejoin:round;stroke-miterlimit:4;stroke-dasharray:none;stroke-opacity:1"
       d="m 320,572.36214 80,0 0,-80 -80,0 0,80 z"
       id="path4449"
       inkscape:connector-curvature="0" />
    <path
       style="opacity:1;fill:#00b6a9;fill-opacity:1;stroke:none;stroke-width:5;stroke-linecap:round;stroke-linejoin:round;stroke-miterlimit:4;stroke-dasharray:none;stroke-opacity:1"
       d="m 320,652.36214 80,0 0,-80 -80,0 0,80 z"
       id="path4447"
       inkscape:connector-curvature="0" />
    <path
       style="opacity:1;fill:#00b6a9;fill-opacity:1;stroke:none;stroke-width:5;stroke-linecap:round;stroke-linejoin:round;stroke-miterlimit:4;stroke-dasharray:none;stroke-opacity:1"
       d="m 320,732.36214 80,0 0,-80 -80,0 0,80 z"
       id="path4445"
       inkscape:connector-curvature="0" />
    <path
       style="opacity:1;fill:#00b6a9;fill-opacity:1;stroke:none;stroke-width:5;stroke-linecap:round;stroke-linejoin:round;stroke-miterlimit:4;stroke-dasharray:none;stroke-opacity:1"
       d="m 320,812.36214 80,0 0,-80 -80,0 0,80 z"
       id="path4443"
       inkscape:connector-curvature="0" />
    <path
       style="opacity:1;fill:#00b6a9;fill-opacity:1;stroke:none;stroke-width:5;stroke-linecap:round;stroke-linejoin:round;stroke-miterlimit:4;stroke-dasharray:none;stroke-opacity:1"
       d="m 400,892.36214 0,-80 -80,0 0,80 80,0 z"
       id="path4441"
       inkscape:connector-curvature="0" />
    <path
       style="opacity:1;fill:#00b6a9;fill-opacity:1;stroke:none;stroke-width:5;stroke-linecap:round;stroke-linejoin:round;stroke-miterlimit:4;stroke-dasharray:none;stroke-opacity:1"
       d="m 560,812.36214 -80,0 0,80 80,0 0,-80 z"
       id="path4439"
       inkscape:connector-curvature="0" />
    <path
       style="opacity:1;fill:#00b6a9;fill-opacity:1;stroke:none;stroke-width:5;stroke-linecap:round;stroke-linejoin:round;stroke-miterlimit:4;stroke-dasharray:none;stroke-opacity:1"
       d="m 560,732.36214 -80,0 0,80 80,0 0,-80 z"
       id="path4437"
       inkscape:connector-curvature="0" />
    <path
       style="opacity:1;fill:#00b6a9;fill-opacity:1;stroke:none;stroke-width:5;stroke-linecap:round;stroke-linejoin:round;stroke-miterlimit:4;stroke-dasharray:none;stroke-opacity:1"
       d="m 560,652.36214 -80,0 0,80 80,0 0,-80 z"
       id="path4435"
       inkscape:connector-curvature="0" />
    <path
       style="opacity:1;fill:#00b6a9;fill-opacity:1;stroke:none;stroke-width:5;stroke-linecap:round;stroke-linejoin:round;stroke-miterlimit:4;stroke-dasharray:none;stroke-opacity:1"
       d="m 560,572.36214 -80,0 0,80 80,0 0,-80 z"
       id="path4433"
       inkscape:connector-curvature="0" />
    <path
       style="opacity:1;fill:#00b6a9;fill-opacity:1;stroke:none;stroke-width:5;stroke-linecap:round;stroke-linejoin:round;stroke-miterlimit:4;stroke-dasharray:none;stroke-opacity:1"
       d="m 560,492.36214 -80,0 0,80 80,0 0,-80 z"
       id="path4431"
       inkscape:connector-curvature="0" />
    <path
       style="opacity:1;fill:#00b6a9;fill-opacity:1;stroke:none;stroke-width:5;stroke-linecap:round;stroke-linejoin:round;stroke-miterlimit:4;stroke-dasharray:none;stroke-opacity:1"
       d="m 560,412.36214 -80,0 0,80 80,0 0,-80 z"
       id="path4429"
       inkscape:connector-curvature="0" />
    <path
       style="opacity:1;fill:#00b6a9;fill-opacity:1;stroke:none;stroke-width:5;stroke-linecap:round;stroke-linejoin:round;stroke-miterlimit:4;stroke-dasharray:none;stroke-opacity:1"
       d="m 560,332.36214 -80,0 0,80 80,0 0,-80 z"
       id="path4427"
       inkscape:connector-curvature="0" />
    <path
       style="opacity:1;fill:#00b6a9;fill-opacity:1;stroke:none;stroke-width:5;stroke-linecap:round;stroke-linejoin:round;stroke-miterlimit:4;stroke-dasharray:none;stroke-opacity:1"
       d="m 480,252.36214 0,80 80,0 0,-80 -80,0 z"
       id="path4425"
       inkscape:connector-curvature="0" />
    <path
       style="opacity:1;fill:#00b6a9;fill-opacity:1;stroke:none;stroke-width:5;stroke-linecap:round;stroke-linejoin:round;stroke-miterlimit:4;stroke-dasharray:none;stroke-opacity:1"
       d="m 320,252.36214 0,80 80,0 0,-80 -80,0 z"
       id="path4423"
       inkscape:connector-curvature="0" />
    <path
       style="opacity:1;fill:#00b6a9;fill-opacity:1;stroke:none;stroke-width:5;stroke-linecap:round;stroke-linejoin:round;stroke-miterlimit:4;stroke-dasharray:none;stroke-opacity:1"
       d="m 160,332.36214 80,0 0,-80 -80,0 0,80 z"
       id="path4421"
       inkscape:connector-curvature="0" />
    <path
       style="opacity:1;fill:#00b6a9;fill-opacity:1;stroke:none;stroke-width:5;stroke-linecap:round;stroke-linejoin:round;stroke-miterlimit:4;stroke-dasharray:none;stroke-opacity:1"
       d="m 160,412.36214 80,0 0,-80 -80,0 0,80 z"
       id="path4419"
       inkscape:connector-curvature="0" />
    <path
       style="opacity:1;fill:#00b6a9;fill-opacity:1;stroke:none;stroke-width:5;stroke-linecap:round;stroke-linejoin:round;stroke-miterlimit:4;stroke-dasharray:none;stroke-opacity:1"
       d="m 160,492.36214 80,0 0,-80 -80,0 0,80 z"
       id="path4417"
       inkscape:connector-curvature="0" />
    <path
       style="opacity:1;fill:#00b6a9;fill-opacity:1;stroke:none;stroke-width:5;stroke-linecap:round;stroke-linejoin:round;stroke-miterlimit:4;stroke-dasharray:none;stroke-opacity:1"
       d="m 160,572.36214 80,0 0,-80 -80,0 0,80 z"
       id="path4415"
       inkscape:connector-curvature="0" />
    <path
       style="opacity:1;fill:#00b6a9;fill-opacity:1;stroke:none;stroke-width:5;stroke-linecap:round;stroke-linejoin:round;stroke-miterlimit:4;stroke-dasharray:none;stroke-opacity:1"
       d="m 160,652.36214 80,0 0,-80 -80,0 0,80 z"
       id="path4413"
       inkscape:connector-curvature="0" />
    <path
       style="opacity:1;fill:#00b6a9;fill-opacity:1;stroke:none;stroke-width:5;stroke-linecap:round;stroke-linejoin:round;stroke-miterlimit:4;stroke-dasharray:none;stroke-opacity:1"
       d="m 160,732.36214 80,0 0,-80 -80,0 0,80 z"
       id="path4411"
       inkscape:connector-curvature="0" />
    <path
       style="opacity:1;fill:#00b6a9;fill-opacity:1;stroke:none;stroke-width:5;stroke-linecap:round;stroke-linejoin:round;stroke-miterlimit:4;stroke-dasharray:none;stroke-opacity:1"
       d="m 160,812.36214 80,0 0,-80 -80,0 0,80 z"
       id="path4409"
       inkscape:connector-curvature="0" />
    <path
       style="opacity:1;fill:#00b6a9;fill-opacity:1;stroke:none;stroke-width:5;stroke-linecap:round;stroke-linejoin:round;stroke-miterlimit:4;stroke-dasharray:none;stroke-opacity:1"
       d="m 160,892.36214 80,0 0,-80 -80,0 0,80 z"
       id="path4407"
       inkscape:connector-curvature="0" />
    <path
       style="opacity:1;fill:#00b6a9;fill-opacity:1;stroke:none;stroke-width:5;stroke-linecap:round;stroke-linejoin:round;stroke-miterlimit:4;stroke-dasharray:none;stroke-opacity:1"
       d="m 240,972.36214 0,-80 -80,0 0,80 80,0 z"
       id="path4405"
       inkscape:connector-curvature="0" />
    <path
       style="opacity:1;fill:#00b6a9;fill-opacity:1;stroke:none;stroke-width:5;stroke-linecap:round;stroke-linejoin:round;stroke-miterlimit:4;stroke-dasharray:none;stroke-opacity:1"
       d="m 400,972.36214 0,-80 -80,0 0,80 80,0 z"
       id="path4403"
       inkscape:connector-curvature="0" />
    <path
       style="opacity:1;fill:#00b6a9;fill-opacity:1;stroke:none;stroke-width:5;stroke-linecap:round;stroke-linejoin:round;stroke-miterlimit:4;stroke-dasharray:none;stroke-opacity:1"
       d="m 560,972.36214 0,-80 -80,0 0,80 80,0 z"
       id="path4401"
       inkscape:connector-curvature="0" />
    <path
       style="opacity:1;fill:#00b6a9;fill-opacity:1;stroke:none;stroke-width:5;stroke-linecap:round;stroke-linejoin:round;stroke-miterlimit:4;stroke-dasharray:none;stroke-opacity:1"
       d="m 720,892.36214 -80,0 0,80 80,0 0,-80 z"
       id="path4399"
       inkscape:connector-curvature="0" />
    <path
       style="opacity:1;fill:#00b6a9;fill-opacity:1;stroke:none;stroke-width:5;stroke-linecap:round;stroke-linejoin:round;stroke-miterlimit:4;stroke-dasharray:none;stroke-opacity:1"
       d="m 720,812.36214 -80,0 0,80 80,0 0,-80 z"
       id="path4397"
       inkscape:connector-curvature="0" />
    <path
       style="opacity:1;fill:#00b6a9;fill-opacity:1;stroke:none;stroke-width:5;stroke-linecap:round;stroke-linejoin:round;stroke-miterlimit:4;stroke-dasharray:none;stroke-opacity:1"
       d="m 720,732.36214 -80,0 0,80 80,0 0,-80 z"
       id="path4395"
       inkscape:connector-curvature="0" />
    <path
       style="opacity:1;fill:#00b6a9;fill-opacity:1;stroke:none;stroke-width:5;stroke-linecap:round;stroke-linejoin:round;stroke-miterlimit:4;stroke-dasharray:none;stroke-opacity:1"
       d="m 720,652.36214 -80,0 0,80 80,0 0,-80 z"
       id="path4393"
       inkscape:connector-curvature="0" />
    <path
       style="opacity:1;fill:#00b6a9;fill-opacity:1;stroke:none;stroke-width:5;stroke-linecap:round;stroke-linejoin:round;stroke-miterlimit:4;stroke-dasharray:none;stroke-opacity:1"
       d="m 720,572.36214 -80,0 0,80 80,0 0,-80 z"
       id="path4391"
       inkscape:connector-curvature="0" />
    <path
       style="opacity:1;fill:#00b6a9;fill-opacity:1;stroke:none;stroke-width:5;stroke-linecap:round;stroke-linejoin:round;stroke-miterlimit:4;stroke-dasharray:none;stroke-opacity:1"
       d="m 720,492.36214 -80,0 0,80 80,0 0,-80 z"
       id="path4389"
       inkscape:connector-curvature="0" />
    <path
       style="opacity:1;fill:#00b6a9;fill-opacity:1;stroke:none;stroke-width:5;stroke-linecap:round;stroke-linejoin:round;stroke-miterlimit:4;stroke-dasharray:none;stroke-opacity:1"
       d="m 720,412.36214 -80,0 0,80 80,0 0,-80 z"
       id="path4387"
       inkscape:connector-curvature="0" />
    <path
       style="opacity:1;fill:#00b6a9;fill-opacity:1;stroke:none;stroke-width:5;stroke-linecap:round;stroke-linejoin:round;stroke-miterlimit:4;stroke-dasharray:none;stroke-opacity:1"
       d="m 720,332.36214 -80,0 0,80 80,0 0,-80 z"
       id="path4385"
       inkscape:connector-curvature="0" />
    <path
       style="opacity:1;fill:#00b6a9;fill-opacity:1;stroke:none;stroke-width:5;stroke-linecap:round;stroke-linejoin:round;stroke-miterlimit:4;stroke-dasharray:none;stroke-opacity:1"
       d="m 720,252.36214 -80,0 0,80 80,0 0,-80 z"
       id="path4383"
       inkscape:connector-curvature="0" />
    <path
       style="opacity:1;fill:#00b6a9;fill-opacity:1;stroke:none;stroke-width:5;stroke-linecap:round;stroke-linejoin:round;stroke-miterlimit:4;stroke-dasharray:none;stroke-opacity:1"
       d="m 640,172.36214 0,80 80,0 0,-80 -80,0 z"
       id="path4381"
       inkscape:connector-curvature="0" />
    <path
       style="opacity:1;fill:#00b6a9;fill-opacity:1;stroke:none;stroke-width:5;stroke-linecap:round;stroke-linejoin:round;stroke-miterlimit:4;stroke-dasharray:none;stroke-opacity:1"
       d="m 480,172.36214 0,80 80,0 0,-80 -80,0 z"
       id="path4379"
       inkscape:connector-curvature="0" />
    <path
       style="opacity:1;fill:#00b6a9;fill-opacity:1;stroke:none;stroke-width:5;stroke-linecap:round;stroke-linejoin:round;stroke-miterlimit:4;stroke-dasharray:none;stroke-opacity:1"
       d="m 320,172.36214 0,80 80,0 0,-80 -80,0 z"
       id="path4377"
       inkscape:connector-curvature="0" />
    <path
       style="opacity:1;fill:#00b6a9;fill-opacity:1;stroke:none;stroke-width:5;stroke-linecap:round;stroke-linejoin:round;stroke-miterlimit:4;stroke-dasharray:none;stroke-opacity:1"
       d="m 160,172.36214 0,80 80,0 0,-80 -80,0 z"
       id="path4375"
       inkscape:connector-curvature="0" />
    <path
       style="opacity:1;fill:#00b6a9;fill-opacity:1;stroke:none;stroke-width:5;stroke-linecap:round;stroke-linejoin:round;stroke-miterlimit:4;stroke-dasharray:none;stroke-opacity:1"
       d="m 0,252.36214 80,0 0,-80 -80,0 0,80 z"
       id="path4373"
       inkscape:connector-curvature="0" />
    <path
       style="opacity:1;fill:#00b6a9;fill-opacity:1;stroke:none;stroke-width:5;stroke-linecap:round;stroke-linejoin:round;stroke-miterlimit:4;stroke-dasharray:none;stroke-opacity:1"
       d="m 0,332.36214 80,0 0,-80 -80,0 0,80 z"
       id="path4371"
       inkscape:connector-curvature="0" />
    <path
       style="opacity:1;fill:#00b6a9;fill-opacity:1;stroke:none;stroke-width:5;stroke-linecap:round;stroke-linejoin:round;stroke-miterlimit:4;stroke-dasharray:none;stroke-opacity:1"
       d="m 0,412.36214 80,0 0,-80 -80,0 0,80 z"
       id="path4369"
       inkscape:connector-curvature="0" />
    <path
       style="opacity:1;fill:#00b6a9;fill-opacity:1;stroke:none;stroke-width:5;stroke-linecap:round;stroke-linejoin:round;stroke-miterlimit:4;stroke-dasharray:none;stroke-opacity:1"
       d="m 0,492.36214 80,0 0,-80 -80,0 0,80 z"
       id="path4367"
       inkscape:connector-curvature="0" />
    <path
       style="opacity:1;fill:#00b6a9;fill-opacity:1;stroke:none;stroke-width:5;stroke-linecap:round;stroke-linejoin:round;stroke-miterlimit:4;stroke-dasharray:none;stroke-opacity:1"
       d="m 0,572.36214 80,0 0,-80 -80,0 0,80 z"
       id="path4365"
       inkscape:connector-curvature="0" />
    <path
       style="opacity:1;fill:#00b6a9;fill-opacity:1;stroke:none;stroke-width:5;stroke-linecap:round;stroke-linejoin:round;stroke-miterlimit:4;stroke-dasharray:none;stroke-opacity:1"
       d="m 0,652.36214 80,0 0,-80 -80,0 0,80 z"
       id="path4363"
       inkscape:connector-curvature="0" />
    <path
       style="opacity:1;fill:#00b6a9;fill-opacity:1;stroke:none;stroke-width:5;stroke-linecap:round;stroke-linejoin:round;stroke-miterlimit:4;stroke-dasharray:none;stroke-opacity:1"
       d="m 0,732.36214 80,0 0,-80 -80,0 0,80 z"
       id="path4361"
       inkscape:connector-curvature="0" />
    <path
       style="opacity:1;fill:#00b6a9;fill-opacity:1;stroke:none;stroke-width:5;stroke-linecap:round;stroke-linejoin:round;stroke-miterlimit:4;stroke-dasharray:none;stroke-opacity:1"
       d="m 0,812.36214 80,0 0,-80 -80,0 0,80 z"
       id="path4359"
       inkscape:connector-curvature="0" />
    <path
       style="opacity:1;fill:#00b6a9;fill-opacity:1;stroke:none;stroke-width:5;stroke-linecap:round;stroke-linejoin:round;stroke-miterlimit:4;stroke-dasharray:none;stroke-opacity:1"
       d="m 0,892.36214 80,0 0,-80 -80,0 0,80 z"
       id="path4357"
       inkscape:connector-curvature="0" />
    <path
       style="opacity:1;fill:#00b6a9;fill-opacity:1;stroke:none;stroke-width:5;stroke-linecap:round;stroke-linejoin:round;stroke-miterlimit:4;stroke-dasharray:none;stroke-opacity:1"
       d="m 0,972.36214 80,0 0,-80 -80,0 0,80 z"
       id="path4355"
       inkscape:connector-curvature="0" />
    <path
       style="opacity:1;fill:#00b6a9;fill-opacity:1;stroke:none;stroke-width:5;stroke-linecap:round;stroke-linejoin:round;stroke-miterlimit:4;stroke-dasharray:none;stroke-opacity:1"
       d="m 80,1052.3621 0,-79.99996 -80,0 0,79.99996 80,0 z"
       id="path4353"
       inkscape:connector-curvature="0" />
    <path
       style="opacity:1;fill:#00b6a9;fill-opacity:1;stroke:none;stroke-width:5;stroke-linecap:round;stroke-linejoin:round;stroke-miterlimit:4;stroke-dasharray:none;stroke-opacity:1"
       d="m 240,1052.3621 0,-79.99996 -80,0 0,79.99996 80,0 z"
       id="path4349"
       inkscape:connector-curvature="0" />
    <path
       style="opacity:1;fill:#00b6a9;fill-opacity:1;stroke:none;stroke-width:5;stroke-linecap:round;stroke-linejoin:round;stroke-miterlimit:4;stroke-dasharray:none;stroke-opacity:1"
       d="m 400,1052.3621 0,-79.99996 -80,0 0,79.99996 80,0 z"
       id="path4345"
       inkscape:connector-curvature="0" />
    <path
       style="opacity:1;fill:#00b6a9;fill-opacity:1;stroke:none;stroke-width:5;stroke-linecap:round;stroke-linejoin:round;stroke-miterlimit:4;stroke-dasharray:none;stroke-opacity:1"
       d="m 560,1052.3621 0,-79.99996 -80,0 0,79.99996 80,0 z"
       id="path4341"
       inkscape:connector-curvature="0" />
    <path
       style="opacity:1;fill:#00b6a9;fill-opacity:1;stroke:none;stroke-width:5;stroke-linecap:round;stroke-linejoin:round;stroke-miterlimit:4;stroke-dasharray:none;stroke-opacity:1"
       d="m 720,1052.3621 0,-79.99996 -80,0 0,79.99996 80,0 z"
       id="path4337"
       inkscape:connector-curvature="0" />
    <path
       style="opacity:1;fill:#00b6a9;fill-opacity:1;stroke:none;stroke-width:5;stroke-linecap:round;stroke-linejoin:round;stroke-miterlimit:4;stroke-dasharray:none;stroke-opacity:1"
       d="m 880,972.36214 -80,0 0,79.99996 80,0 0,-79.99996 z"
       id="path4331"
       inkscape:connector-curvature="0" />
    <path
       style="opacity:1;fill:#00b6a9;fill-opacity:1;stroke:none;stroke-width:5;stroke-linecap:round;stroke-linejoin:round;stroke-miterlimit:4;stroke-dasharray:none;stroke-opacity:1"
       d="m 880,892.36214 -80,0 0,80 80,0 0,-80 z"
       id="path4329"
       inkscape:connector-curvature="0" />
    <path
       style="opacity:1;fill:#00b6a9;fill-opacity:1;stroke:none;stroke-width:5;stroke-linecap:round;stroke-linejoin:round;stroke-miterlimit:4;stroke-dasharray:none;stroke-opacity:1"
       d="m 880,812.36214 -80,0 0,80 80,0 0,-80 z"
       id="path4327"
       inkscape:connector-curvature="0" />
    <path
       style="opacity:1;fill:#00b6a9;fill-opacity:1;stroke:none;stroke-width:5;stroke-linecap:round;stroke-linejoin:round;stroke-miterlimit:4;stroke-dasharray:none;stroke-opacity:1"
       d="m 880,732.36214 -80,0 0,80 80,0 0,-80 z"
       id="path4325"
       inkscape:connector-curvature="0" />
    <path
       style="opacity:1;fill:#00b6a9;fill-opacity:1;stroke:none;stroke-width:5;stroke-linecap:round;stroke-linejoin:round;stroke-miterlimit:4;stroke-dasharray:none;stroke-opacity:1"
       d="m 880,652.36214 -80,0 0,80 80,0 0,-80 z"
       id="path4323"
       inkscape:connector-curvature="0" />
    <path
       style="opacity:1;fill:#00b6a9;fill-opacity:1;stroke:none;stroke-width:5;stroke-linecap:round;stroke-linejoin:round;stroke-miterlimit:4;stroke-dasharray:none;stroke-opacity:1"
       d="m 880,572.36214 -80,0 0,80 80,0 0,-80 z"
       id="path4321"
       inkscape:connector-curvature="0" />
    <path
       style="opacity:1;fill:#00b6a9;fill-opacity:1;stroke:none;stroke-width:5;stroke-linecap:round;stroke-linejoin:round;stroke-miterlimit:4;stroke-dasharray:none;stroke-opacity:1"
       d="m 880,492.36214 -80,0 0,80 80,0 0,-80 z"
       id="path4319"
       inkscape:connector-curvature="0" />
    <path
       style="opacity:1;fill:#00b6a9;fill-opacity:1;stroke:none;stroke-width:5;stroke-linecap:round;stroke-linejoin:round;stroke-miterlimit:4;stroke-dasharray:none;stroke-opacity:1"
       d="m 880,412.36214 -80,0 0,80 80,0 0,-80 z"
       id="path4317"
       inkscape:connector-curvature="0" />
    <path
       style="opacity:1;fill:#00b6a9;fill-opacity:1;stroke:none;stroke-width:5;stroke-linecap:round;stroke-linejoin:round;stroke-miterlimit:4;stroke-dasharray:none;stroke-opacity:1"
       d="m 880,332.36214 -80,0 0,80 80,0 0,-80 z"
       id="path4315"
       inkscape:connector-curvature="0" />
    <path
       style="opacity:1;fill:#00b6a9;fill-opacity:1;stroke:none;stroke-width:5;stroke-linecap:round;stroke-linejoin:round;stroke-miterlimit:4;stroke-dasharray:none;stroke-opacity:1"
       d="m 880,252.36214 -80,0 0,80 80,0 0,-80 z"
       id="path4313"
       inkscape:connector-curvature="0" />
    <path
       style="opacity:1;fill:#00b6a9;fill-opacity:1;stroke:none;stroke-width:5;stroke-linecap:round;stroke-linejoin:round;stroke-miterlimit:4;stroke-dasharray:none;stroke-opacity:1"
       d="m 880,172.36214 -80,0 0,80 80,0 0,-80 z"
       id="path4311"
       inkscape:connector-curvature="0" />
    <path
       style="opacity:1;fill:#00b6a9;fill-opacity:1;stroke:none;stroke-width:5;stroke-linecap:round;stroke-linejoin:round;stroke-miterlimit:4;stroke-dasharray:none;stroke-opacity:1"
       d="m 800,92.362177 0,79.999963 80,0 0,-79.999963 -80,0 z"
       id="path4309"
       inkscape:connector-curvature="0" />
    <path
       style="opacity:1;fill:#00b6a9;fill-opacity:1;stroke:none;stroke-width:5;stroke-linecap:round;stroke-linejoin:round;stroke-miterlimit:4;stroke-dasharray:none;stroke-opacity:1"
       d="m 640,92.362177 0,79.999963 80,0 0,-79.999963 -80,0 z"
       id="path4307"
       inkscape:connector-curvature="0" />
    <path
       style="opacity:1;fill:#00b6a9;fill-opacity:1;stroke:none;stroke-width:5;stroke-linecap:round;stroke-linejoin:round;stroke-miterlimit:4;stroke-dasharray:none;stroke-opacity:1"
       d="m 480,92.362177 0,79.999963 80,0 0,-79.999963 -80,0 z"
       id="path4305"
       inkscape:connector-curvature="0" />
    <path
       style="opacity:1;fill:#00b6a9;fill-opacity:1;stroke:none;stroke-width:5;stroke-linecap:round;stroke-linejoin:round;stroke-miterlimit:4;stroke-dasharray:none;stroke-opacity:1"
       d="m 320,92.362177 0,79.999963 80,0 0,-79.999963 -80,0 z"
       id="path4303"
       inkscape:connector-curvature="0" />
    <path
       style="opacity:1;fill:#00b6a9;fill-opacity:1;stroke:none;stroke-width:5;stroke-linecap:round;stroke-linejoin:round;stroke-miterlimit:4;stroke-dasharray:none;stroke-opacity:1"
       d="m 160,92.362177 0,79.999963 80,0 0,-79.999963 -80,0 z"
       id="path4301"
       inkscape:connector-curvature="0" />
    <path
       style="opacity:1;fill:#00b6a9;fill-opacity:1;stroke:none;stroke-width:5;stroke-linecap:round;stroke-linejoin:round;stroke-miterlimit:4;stroke-dasharray:none;stroke-opacity:1"
       d="m 0,92.362177 0,79.999963 80,0 0,-79.999963 -80,0 z"
       id="path4299"
       inkscape:connector-curvature="0" />
    <path
       style="opacity:1;fill:#00b6a9;fill-opacity:1;stroke:none;stroke-width:5;stroke-linecap:round;stroke-linejoin:round;stroke-miterlimit:4;stroke-dasharray:none;stroke-opacity:1"
       d="m 80,12.362174 -80,0 0,80.000003 80,0 0,-80.000003 z"
       id="path4295"
       inkscape:connector-curvature="0" />
    <path
       style="opacity:1;fill:#00b6a9;fill-opacity:1;stroke:none;stroke-width:5;stroke-linecap:round;stroke-linejoin:round;stroke-miterlimit:4;stroke-dasharray:none;stroke-opacity:1"
       d="m 240,12.362174 -80,0 0,80.000003 80,0 0,-80.000003 z"
       id="path4291"
       inkscape:connector-curvature="0" />
    <path
       style="opacity:1;fill:#00b6a9;fill-opacity:1;stroke:none;stroke-width:5;stroke-linecap:round;stroke-linejoin:round;stroke-miterlimit:4;stroke-dasharray:none;stroke-opacity:1"
       d="m 400,12.362174 -80,0 0,80.000003 80,0 0,-80.000003 z"
       id="path4287"
       inkscape:connector-curvature="0" />
    <path
       style="opacity:1;fill:#00b6a9;fill-opacity:1;stroke:none;stroke-width:5;stroke-linecap:round;stroke-linejoin:round;stroke-miterlimit:4;stroke-dasharray:none;stroke-opacity:1"
       d="m 560,12.362174 -80,0 0,80.000003 80,0 0,-80.000003 z"
       id="path4283"
       inkscape:connector-curvature="0" />
    <path
       style="opacity:1;fill:#00b6a9;fill-opacity:1;stroke:none;stroke-width:5;stroke-linecap:round;stroke-linejoin:round;stroke-miterlimit:4;stroke-dasharray:none;stroke-opacity:1"
       d="m 720,12.362174 -80,0 0,80.000003 80,0 0,-80.000003 z"
       id="path4279"
       inkscape:connector-curvature="0" />
    <path
       style="opacity:1;fill:#00b6a9;fill-opacity:1;stroke:none;stroke-width:5;stroke-linecap:round;stroke-linejoin:round;stroke-miterlimit:4;stroke-dasharray:none;stroke-opacity:1"
       d="m 880,12.362174 -80,0 0,80.000003 80,0 0,-80.000003 z"
       id="path4275"
       inkscape:connector-curvature="0" />
    <path
       style="opacity:1;fill:#00b6a9;fill-opacity:1;stroke:none;stroke-width:5;stroke-linecap:round;stroke-linejoin:round;stroke-miterlimit:4;stroke-dasharray:none;stroke-opacity:1"
       d="m 960,92.362177 80,0 0,-80.000003 -80,0 0,80.000003 z"
       id="path4271"
       inkscape:connector-curvature="0" />
    <path
       style="opacity:1;fill:#00b6a9;fill-opacity:1;stroke:none;stroke-width:5;stroke-linecap:round;stroke-linejoin:round;stroke-miterlimit:4;stroke-dasharray:none;stroke-opacity:1"
       d="m 960,172.36214 80,0 0,-79.999963 -80,0 0,79.999963 z"
       id="path4269"
       inkscape:connector-curvature="0" />
    <path
       style="opacity:1;fill:#00b6a9;fill-opacity:1;stroke:none;stroke-width:5;stroke-linecap:round;stroke-linejoin:round;stroke-miterlimit:4;stroke-dasharray:none;stroke-opacity:1"
       d="m 960,252.36214 80,0 0,-80 -80,0 0,80 z"
       id="path4267"
       inkscape:connector-curvature="0" />
    <path
       style="opacity:1;fill:#00b6a9;fill-opacity:1;stroke:none;stroke-width:5;stroke-linecap:round;stroke-linejoin:round;stroke-miterlimit:4;stroke-dasharray:none;stroke-opacity:1"
       d="m 960,332.36214 80,0 0,-80 -80,0 0,80 z"
       id="path4265"
       inkscape:connector-curvature="0" />
    <path
       style="opacity:1;fill:#00b6a9;fill-opacity:1;stroke:none;stroke-width:5;stroke-linecap:round;stroke-linejoin:round;stroke-miterlimit:4;stroke-dasharray:none;stroke-opacity:1"
       d="m 960,412.36214 80,0 0,-80 -80,0 0,80 z"
       id="path4263"
       inkscape:connector-curvature="0" />
    <path
       style="opacity:1;fill:#00b6a9;fill-opacity:1;stroke:none;stroke-width:5;stroke-linecap:round;stroke-linejoin:round;stroke-miterlimit:4;stroke-dasharray:none;stroke-opacity:1"
       d="m 960,492.36214 80,0 0,-80 -80,0 0,80 z"
       id="path4261"
       inkscape:connector-curvature="0" />
    <path
       style="opacity:1;fill:#00b6a9;fill-opacity:1;stroke:none;stroke-width:5;stroke-linecap:round;stroke-linejoin:round;stroke-miterlimit:4;stroke-dasharray:none;stroke-opacity:1"
       d="m 960,572.36214 80,0 0,-80 -80,0 0,80 z"
       id="path4259"
       inkscape:connector-curvature="0" />
    <path
       style="opacity:1;fill:#00b6a9;fill-opacity:1;stroke:none;stroke-width:5;stroke-linecap:round;stroke-linejoin:round;stroke-miterlimit:4;stroke-dasharray:none;stroke-opacity:1"
       d="m 960,652.36214 80,0 0,-80 -80,0 0,80 z"
       id="path4257"
       inkscape:connector-curvature="0" />
    <path
       style="opacity:1;fill:#00b6a9;fill-opacity:1;stroke:none;stroke-width:5;stroke-linecap:round;stroke-linejoin:round;stroke-miterlimit:4;stroke-dasharray:none;stroke-opacity:1"
       d="m 960,732.36214 80,0 0,-80 -80,0 0,80 z"
       id="path4255"
       inkscape:connector-curvature="0" />
    <path
       style="opacity:1;fill:#00b6a9;fill-opacity:1;stroke:none;stroke-width:5;stroke-linecap:round;stroke-linejoin:round;stroke-miterlimit:4;stroke-dasharray:none;stroke-opacity:1"
       d="m 960,812.36214 80,0 0,-80 -80,0 0,80 z"
       id="path4253"
       inkscape:connector-curvature="0" />
    <path
       style="opacity:1;fill:#00b6a9;fill-opacity:1;stroke:none;stroke-width:5;stroke-linecap:round;stroke-linejoin:round;stroke-miterlimit:4;stroke-dasharray:none;stroke-opacity:1"
       d="m 960,892.36214 80,0 0,-80 -80,0 0,80 z"
       id="path4251"
       inkscape:connector-curvature="0" />
    <path
       style="opacity:1;fill:#00b6a9;fill-opacity:1;stroke:none;stroke-width:5;stroke-linecap:round;stroke-linejoin:round;stroke-miterlimit:4;stroke-dasharray:none;stroke-opacity:1"
       d="m 960,972.36214 80,0 0,-80 -80,0 0,80 z"
       id="path4249"
       inkscape:connector-curvature="0" />
    <path
       style="opacity:1;fill:#00b6a9;fill-opacity:1;stroke:none;stroke-width:5;stroke-linecap:round;stroke-linejoin:round;stroke-miterlimit:4;stroke-dasharray:none;stroke-opacity:1"
       d="m 960,1052.3621 80,0 0,-79.99996 -80,0 0,79.99996 z"
       id="path4247"
       inkscape:connector-curvature="0" />
  </g>
</svg>
