<?xml version="1.0" encoding="UTF-8" standalone="no"?>
<!-- Created with Inkscape (http://www.inkscape.org/) -->

<svg
   xmlns:dc="http://purl.org/dc/elements/1.1/"
   xmlns:cc="http://creativecommons.org/ns#"
   xmlns:rdf="http://www.w3.org/1999/02/22-rdf-syntax-ns#"
   xmlns:svg="http://www.w3.org/2000/svg"
   xmlns="http://www.w3.org/2000/svg"
   xmlns:sodipodi="http://sodipodi.sourceforge.net/DTD/sodipodi-0.dtd"
   xmlns:inkscape="http://www.inkscape.org/namespaces/inkscape"
   id="svg4276"
   version="1.1"
   inkscape:version="0.91 r13725"
   xml:space="preserve"
   width="66.25975"
   height="41.28075"
   viewBox="0 0 66.25975 41.28075"
   sodipodi:docname="amul.svg"><metadata
     id="metadata4282"><rdf:RDF><cc:Work
         rdf:about=""><dc:format>image/svg+xml</dc:format><dc:type
           rdf:resource="http://purl.org/dc/dcmitype/StillImage" /><dc:title></dc:title></cc:Work></rdf:RDF></metadata><defs
     id="defs4280" /><sodipodi:namedview
     pagecolor="#ffffff"
     bordercolor="#666666"
     borderopacity="1"
     objecttolerance="10"
     gridtolerance="10"
     guidetolerance="10"
     inkscape:pageopacity="0"
     inkscape:pageshadow="2"
     inkscape:window-width="1920"
     inkscape:window-height="1017"
     id="namedview4278"
     showgrid="false"
     fit-margin-top="0"
     fit-margin-left="0"
     fit-margin-right="0"
     fit-margin-bottom="0"
     inkscape:zoom="11.724138"
     inkscape:cx="33.457"
     inkscape:cy="20.50925"
     inkscape:window-x="-8"
     inkscape:window-y="-8"
     inkscape:window-maximized="1"
     inkscape:current-layer="g4284" /><g
     id="g4284"
     inkscape:groupmode="layer"
     inkscape:label="ink_ext_XXXXXX"
     transform="matrix(1.25,0,0,-1.25,-13.418,57.0215)"><g
       id="g4286"
       transform="scale(0.1,0.1)"><path
         d="m 207.91,456.172 328.949,0 0,-224.348 -328.949,0 0,224.348 z m 328.949,-310.274 0,-19.972 -328.949,0 0,19.972 328.949,0"
         style="fill:#ed1c24;fill-opacity:1;fill-rule:evenodd;stroke:none"
         id="path4288"
         inkscape:connector-curvature="0" /><path
         d="m 227.801,246.805 c -12.567,12.699 -6.934,37.609 14.547,34.668 2.027,4.257 3.605,8.351 4.953,11.804 -5.067,0.028 -8.949,-0.527 -12.918,-4.832 1.668,9.918 7.719,14.657 17.406,15.11 l 10.527,25.816 c -0.25,3.406 -10.996,1.422 -13.093,-5.269 l -3.446,2.949 c 3.496,6.648 6.993,13.031 10.493,19.414 19.828,9.922 31.843,-13.477 38.562,-28.047 4.863,-10.539 9.121,-21.457 13.664,-32.207 0.789,-2.133 1.848,-4.277 2.906,-6.41 1.598,-1.121 3.485,0.387 5.493,3.078 l 2.453,-3.09 c -7.746,-7.672 -15.051,-14.746 -22.731,-22.855 -0.523,1.074 -1.054,2.144 -1.582,2.945 -3.156,9.086 -6.308,20.027 -9.465,29.113 -2.168,-1.031 -22.238,-1.66 -28.265,2.852 -1.348,-3.192 -3.219,-8.832 -4.301,-12.289 2.648,-1.703 5.297,-3.629 8.144,-5.575 0.657,-0.449 1.024,-0.687 1.825,-0.785 3.187,-0.41 5.043,1.493 6.109,1.723 l 1.387,-1.563 -13.778,-14.57 c -19.617,20.61 -37.82,8.34 -27.238,-10.637 -0.527,0 -1.113,-1.082 -1.652,-1.343 z m 34.621,56.281 8.746,21.875 c 3.984,-5.273 8.875,-18.438 10.973,-24.586 -7.348,-0.125 -14.082,0.563 -19.719,2.711 z m 137.691,-48.008 -15.472,12.496 c 2.566,0.617 3.457,1.465 4.172,3.344 0.128,7.789 0.257,15.586 0.382,23.379 0.348,6.449 -10.711,9.004 -11.289,-0.481 l 0.25,-19.113 c 0,-2.402 1.649,-4.281 5.539,-2.496 l 0.282,-2.711 -15.563,-13.715 -14.726,12.352 c 1.343,0.527 3.402,2.133 3.679,3.472 0,7.801 1.164,17.735 -0.144,25.274 -1.473,5.016 -9.582,3.988 -9.957,-2.106 0.117,-2.148 -0.289,-16.832 0.468,-22.093 0.246,-1.723 2.391,-1.762 3.746,-1.012 l 1.297,0.719 0.09,-2.602 -14.875,-13.875 -15.469,14.063 c 1.883,0.527 3.805,1.254 4.743,2.863 0,2.734 1.687,20.262 -0.063,25.211 -0.32,0.918 -1.242,1.43 -2.168,1.629 -1.644,0.355 -3.969,-0.899 -4.551,-1.266 0,0.539 -1.886,2.641 -1.886,2.641 4.316,3.746 9.097,7.203 13.687,10.945 9.32,1.004 14.336,-5.933 14.617,-9.476 12.582,9.183 16.328,16.359 28.641,2.058 0.531,-0.808 1.332,-1.621 2.129,-2.695 9.402,12.043 27.781,14.234 31.445,-2.039 0,-8.746 -0.09,-17.492 0.082,-26.457 l 0.012,-0.68 c 0,-3.316 2.59,-2.148 5.336,-0.039 l 0.586,-2.883 -15.02,-14.707 z m 39.719,-0.41 c -1.508,1.246 -17.863,12.461 -17.863,12.461 0.371,0.355 3.027,0.965 3.465,2.422 0,7.988 0.066,14.746 0.371,22.465 0.203,6.136 -2.774,6.207 -7.703,3.769 l -2.149,3.613 15.809,11.657 c 6.351,0.347 12.789,-5.649 12.461,-12.2 0,-7.417 -0.071,-15.031 0.047,-22.664 0,-2.695 -0.332,-4.472 1.714,-6.476 2.395,-2.332 5.465,-2.027 8.469,-0.512 2.68,1.36 3.668,3.551 3.668,6.09 0.137,5.695 0.387,13.258 -0.105,18.902 -0.121,1.391 -0.723,2.52 -1.832,2.785 -1.778,0.438 -3.508,0.188 -5.055,-1.89 l -2.395,3.879 13.661,11.25 c 5.398,0.015 12.793,-2.043 14.601,-9.93 1.367,-6.93 -0.254,-17.879 0.492,-24.484 0.176,-1.516 0.477,-2.809 0.969,-3.762 1.84,-2.309 3.457,-1.395 6.188,0.746 l 1.515,-2.879 c -4.281,-3.972 -10.902,-10.914 -15.183,-15.156 -5.223,3.379 -8.661,6.523 -13.618,11.457 -5.566,-3.606 -11.914,-8.109 -17.527,-11.543 z m 65.488,-0.781 c -3.898,4.652 -10.156,9.613 -14.679,13.508 3.679,-0.18 4.14,1.308 4.14,4.367 0,16.109 0.242,32.211 0.242,48.316 -1.171,6.531 -6.332,3.793 -9.972,0.863 l -1.832,3 16.484,17 c 7.895,-0.64 14.57,-5.601 16.117,-12.336 0,-18.597 0.082,-37.468 0.254,-56.339 0.524,-3.243 3.949,-2.844 6.356,-1.118 0.437,-0.906 0.5,-1.468 1.14,-2.882 -5.07,-3.668 -12.215,-8.754 -18.25,-14.379"
         style="fill:#ffffff;fill-opacity:1;fill-rule:evenodd;stroke:none"
         id="path4290"
         inkscape:connector-curvature="0" /><path
         d="m 107.344,152.527 530.078,0 0,72.6641 -530.078,0 0,-72.6641 z"
         style="fill:#33b540;fill-opacity:1;fill-rule:evenodd;stroke:none"
         id="path4292"
         inkscape:connector-curvature="0" /><path
         d="m 130.172,207.492 32.75,0 0.84,-14.23 -2.309,0 c -0.535,3.035 -1.234,5.414 -2.098,7.117 -0.867,1.699 -1.843,2.914 -2.949,3.629 -1.109,0.719 -2.32,1.082 -3.644,1.082 -0.758,0 -1.313,-0.156 -1.664,-0.477 -0.356,-0.312 -0.539,-0.761 -0.539,-1.351 l 0,-28.981 c 0,-0.551 0.175,-1.011 0.519,-1.367 0.348,-0.351 0.77,-0.531 1.254,-0.531 l 4.266,0 0,-2.356 -20.047,0 0,2.356 4.058,0 c 0.602,0 1.086,0.172 1.442,0.523 0.355,0.348 0.527,0.805 0.527,1.375 l 0,28.828 c 0,0.672 -0.18,1.176 -0.543,1.496 -0.363,0.321 -0.926,0.485 -1.703,0.485 -4.309,0 -7.223,-3.942 -8.742,-11.828 l -2.231,0 0.813,14.23 z m 36.781,0 11.195,0.555 0,-18.434 c 1.707,2.09 3.278,3.52 4.715,4.289 1.438,0.766 3,1.157 4.711,1.157 2.36,0 4.168,-0.715 5.422,-2.153 1.418,-1.656 2.125,-3.996 2.125,-7.023 l 0,-11.246 c 0,-0.778 0.172,-1.348 0.531,-1.711 0.352,-0.363 0.871,-0.543 1.543,-0.543 l 1.645,0 0,-2.356 -14.309,0 0,2.356 1.547,0 c 0.856,0 1.445,0.16 1.746,0.484 0.422,0.422 0.633,1.012 0.633,1.77 l 0,11.051 c 0,1.582 -0.426,2.843 -1.281,3.785 -0.848,0.937 -1.918,1.402 -3.196,1.402 -1.593,0 -2.96,-0.668 -4.109,-1.996 -1.152,-1.34 -1.723,-3.156 -1.723,-5.449 l 0,-8.793 c 0,-0.758 0.184,-1.321 0.547,-1.696 0.364,-0.371 0.879,-0.558 1.555,-0.558 l 1.723,0 0,-2.356 -14.743,0 0,2.356 2.047,0 c 0.727,0 1.282,0.195 1.653,0.586 0.371,0.39 0.554,0.941 0.554,1.668 l 0,27.894 c 0,0.813 -0.257,1.442 -0.769,1.91 -0.52,0.465 -1.203,0.7 -2.067,0.7 l -1.695,0 0,2.351 z m 60.688,-25.758 -16.641,0 c 0.051,-3.328 0.723,-5.781 2.012,-7.363 1.289,-1.574 2.949,-2.363 4.98,-2.363 1.453,0 2.828,0.398 4.125,1.211 1.305,0.812 2.637,2.281 4,4.41 l 1.852,-1.141 c -1.434,-2.535 -3.078,-4.34 -4.926,-5.433 -1.852,-1.086 -4.109,-1.629 -6.773,-1.629 -3.887,0 -7.028,1.176 -9.422,3.543 -2.403,2.359 -3.598,5.394 -3.598,9.094 0,3.695 1.203,6.789 3.625,9.269 2.41,2.484 5.375,3.727 8.887,3.727 2.429,0 4.519,-0.5 6.269,-1.496 1.746,-1.004 3.102,-2.454 4.078,-4.372 0.969,-1.91 1.481,-4.402 1.532,-7.457 z m -16.641,2.278 7.926,0 c 0.742,0 1.281,0.187 1.601,0.558 0.321,0.371 0.473,1.047 0.473,2.028 0,1.961 -0.441,3.472 -1.34,4.547 -0.89,1.07 -2.031,1.605 -3.414,1.605 -1.641,0 -2.898,-0.727 -3.762,-2.176 -0.875,-1.453 -1.367,-3.64 -1.484,-6.562 z m 36.855,23.48 32.754,0 0.84,-14.23 -2.312,0 c -0.535,3.035 -1.235,5.414 -2.102,7.117 -0.863,1.699 -1.84,2.914 -2.945,3.629 -1.11,0.719 -2.32,1.082 -3.641,1.082 -0.761,0 -1.316,-0.156 -1.668,-0.477 -0.355,-0.312 -0.535,-0.761 -0.535,-1.351 l 0,-28.981 c 0,-0.551 0.172,-1.011 0.516,-1.367 0.347,-0.351 0.769,-0.531 1.254,-0.531 l 4.261,0 0,-2.356 -20.039,0 0,2.356 4.055,0 c 0.605,0 1.09,0.172 1.445,0.523 0.356,0.348 0.528,0.805 0.528,1.375 l 0,28.828 c 0,0.672 -0.184,1.176 -0.547,1.496 -0.364,0.321 -0.926,0.485 -1.703,0.485 -4.305,0 -7.219,-3.942 -8.743,-11.828 l -2.23,0 0.812,14.23 z m 64.692,-34.523 1.066,-1.824 c -1.031,-0.707 -1.957,-1.204 -2.769,-1.473 -0.821,-0.266 -1.723,-0.402 -2.696,-0.402 -1.453,0 -2.628,0.308 -3.531,0.921 -0.89,0.618 -1.711,1.786 -2.453,3.489 -1.723,-1.703 -3.269,-2.871 -4.637,-3.489 -1.363,-0.613 -2.914,-0.921 -4.632,-0.921 -2.387,0 -4.235,0.55 -5.575,1.652 -1.336,1.086 -2,2.488 -2,4.176 0,2.55 1.227,4.59 3.703,6.129 1.969,1.218 6.301,2.429 12.993,3.648 l 0,3.414 c 0,1.359 -0.45,2.457 -1.348,3.313 -0.891,0.847 -2.094,1.277 -3.594,1.277 -1.152,0 -2.164,-0.246 -3.039,-0.731 -0.597,-0.324 -0.887,-0.652 -0.887,-0.972 0,-0.164 0.11,-0.422 0.329,-0.758 0.472,-0.754 0.707,-1.508 0.707,-2.25 0,-0.949 -0.313,-1.711 -0.934,-2.293 -0.621,-0.586 -1.461,-0.879 -2.508,-0.879 -1.117,0 -2.015,0.317 -2.691,0.949 -0.672,0.641 -1.012,1.453 -1.012,2.45 0,1.632 0.891,3.078 2.668,4.332 2.211,1.554 4.961,2.332 8.254,2.332 2.48,0 4.687,-0.391 6.605,-1.168 1.239,-0.493 2.239,-1.348 3.008,-2.575 0.77,-1.218 1.153,-2.734 1.153,-4.519 l 0,-12.031 c 0,-0.914 0.164,-1.571 0.507,-1.981 0.34,-0.402 0.797,-0.601 1.395,-0.601 0.484,0 1.133,0.257 1.918,0.785 z m -10.531,9.703 c -3.614,-0.496 -6.059,-1.246 -7.34,-2.266 -1.274,-1.019 -1.91,-2.371 -1.91,-4.047 0,-1.179 0.3,-2.086 0.898,-2.726 0.606,-0.629 1.445,-0.942 2.524,-0.942 1.667,0 3.062,0.598 4.167,1.797 1.11,1.196 1.661,2.84 1.661,4.914 l 0,3.27 z m 31.23,10.355 1.668,2.008 1.547,0 0.512,-8.109 -2.059,0 c -1.078,2.14 -2.266,3.648 -3.551,4.519 -1.297,0.875 -2.863,1.305 -4.707,1.305 -1.582,0 -2.789,-0.301 -3.621,-0.914 -0.832,-0.606 -1.234,-1.375 -1.234,-2.301 0,-0.918 0.32,-1.609 0.957,-2.074 0.64,-0.492 2.398,-1.031 5.265,-1.602 2.602,-0.519 4.336,-0.957 5.2,-1.312 1.632,-0.66 2.91,-1.645 3.84,-2.942 0.914,-1.304 1.371,-2.816 1.371,-4.554 0,-2.199 -0.879,-4.047 -2.645,-5.543 -1.766,-1.488 -4.078,-2.238 -6.953,-2.238 -1.383,0 -2.633,0.164 -3.762,0.492 -1.121,0.328 -2.289,0.906 -3.508,1.738 l -1.8,-2.125 -1.918,0 -0.457,8.965 2.101,0 c 1.789,-4.524 4.867,-6.789 9.215,-6.789 1.793,0 3.168,0.344 4.109,1.035 0.942,0.695 1.414,1.523 1.414,2.484 0,0.883 -0.289,1.547 -0.878,1.996 -0.598,0.457 -2.161,0.954 -4.711,1.469 -2.758,0.563 -4.637,1.047 -5.633,1.445 -1.703,0.665 -2.981,1.575 -3.844,2.75 -0.867,1.176 -1.289,2.594 -1.289,4.247 0,2.359 0.777,4.304 2.352,5.812 1.574,1.508 3.671,2.27 6.304,2.27 1.285,0 2.438,-0.157 3.457,-0.457 1.028,-0.305 2.11,-0.832 3.258,-1.575 z m 16.949,10.465 2.274,0 0,-9.754 7.832,0 0,-2.734 -7.832,0 0,-15.066 c 0,-1.008 0.258,-1.778 0.761,-2.321 0.508,-0.554 1.172,-0.832 2.004,-0.832 2.36,0 3.614,2.207 3.746,6.617 l 2.282,0 c -0.055,-2.343 -0.426,-4.238 -1.117,-5.664 -0.692,-1.425 -1.684,-2.527 -2.973,-3.3 -1.289,-0.782 -2.754,-1.168 -4.367,-1.168 -1.426,0 -2.653,0.285 -3.692,0.863 -1.035,0.57 -1.867,1.426 -2.484,2.566 -0.609,1.141 -0.922,2.379 -0.922,3.707 l 0,14.598 -4.203,0 0,2.328 c 2.57,0.336 4.566,1.328 6,2.965 1.437,1.641 2.336,4.035 2.691,7.195 z m 39.313,-21.758 -16.641,0 c 0.047,-3.328 0.723,-5.781 2.012,-7.363 1.289,-1.574 2.949,-2.363 4.98,-2.363 1.454,0 2.829,0.398 4.125,1.211 1.305,0.812 2.637,2.281 4.004,4.41 l 1.848,-1.141 c -1.434,-2.535 -3.078,-4.34 -4.926,-5.433 -1.851,-1.086 -4.109,-1.629 -6.773,-1.629 -3.887,0 -7.028,1.176 -9.422,3.543 -2.402,2.359 -3.598,5.394 -3.598,9.094 0,3.695 1.203,6.789 3.625,9.269 2.41,2.484 5.375,3.727 8.887,3.727 2.426,0 4.523,-0.5 6.269,-1.496 1.747,-1.004 3.102,-2.454 4.079,-4.372 0.968,-1.91 1.48,-4.402 1.531,-7.457 z m -16.641,2.278 7.926,0 c 0.742,0 1.277,0.187 1.598,0.558 0.32,0.371 0.476,1.047 0.476,2.028 0,1.961 -0.441,3.472 -1.34,4.547 -0.89,1.07 -2.031,1.605 -3.414,1.605 -1.644,0 -2.898,-0.727 -3.761,-2.176 -0.875,-1.453 -1.368,-3.64 -1.485,-6.562 z m 49.93,11.047 c 2.644,0 5.082,-0.579 7.305,-1.727 2.222,-1.144 3.875,-2.648 4.957,-4.496 1.078,-1.852 1.613,-4.074 1.613,-6.676 0,-4.152 -1.406,-7.34 -4.246,-9.562 -2.824,-2.211 -6.024,-3.328 -9.602,-3.328 -2.535,0 -4.851,0.57 -6.965,1.71 -2.097,1.141 -3.714,2.672 -4.847,4.61 -1.133,1.933 -1.696,4.117 -1.696,6.543 0,3.668 1.282,6.734 3.84,9.207 2.559,2.476 5.766,3.719 9.641,3.719 z m 0.148,-2.411 c -1.757,0 -3.156,-0.773 -4.195,-2.32 -1.039,-1.547 -1.559,-4.258 -1.559,-8.14 0,-4.043 0.52,-6.817 1.551,-8.348 1.028,-1.527 2.418,-2.289 4.176,-2.289 1.789,0 3.234,0.789 4.332,2.351 1.098,1.575 1.652,4.282 1.652,8.137 0,3.949 -0.547,6.711 -1.625,8.266 -1.082,1.562 -2.527,2.343 -4.332,2.343 z m 29.032,1.09 6.078,0 0,-2.734 -6.078,0 0,-16.867 c 0,-0.668 0.121,-1.117 0.382,-1.375 0.25,-0.25 0.707,-0.379 1.364,-0.379 l 4.179,0 0,-2.356 -17.121,0 0,2.356 2.453,0 c 0.746,0 1.258,0.137 1.547,0.402 0.289,0.278 0.426,0.719 0.426,1.352 l 0,16.867 -4.07,0 0,2.734 4.07,0 0,0.969 c 0,3.172 0.469,5.766 1.383,7.781 0.918,2.024 2.215,3.516 3.875,4.496 1.668,0.985 3.711,1.469 6.148,1.469 2.254,0 4.008,-0.547 5.258,-1.644 1.234,-1.094 1.856,-2.461 1.856,-4.106 0,-1.297 -0.379,-2.371 -1.149,-3.199 -0.769,-0.836 -1.687,-1.254 -2.75,-1.254 -0.992,0 -1.832,0.32 -2.508,0.969 -0.675,0.656 -1.011,1.461 -1.011,2.422 0,0.996 0.504,1.867 1.515,2.609 0.492,0.371 0.731,0.691 0.731,0.961 0,0.242 -0.117,0.434 -0.379,0.586 -0.387,0.238 -0.899,0.355 -1.539,0.355 -0.848,0 -1.625,-0.265 -2.34,-0.785 -0.723,-0.527 -1.246,-1.265 -1.586,-2.203 -0.488,-1.402 -0.734,-2.891 -0.734,-4.465 l 0,-4.961 z m 23.867,13.754 19.191,0 0,-2.351 -3.465,0 c -0.746,0 -1.281,-0.157 -1.617,-0.45 -0.336,-0.293 -0.512,-0.726 -0.512,-1.304 l 0,-29 c 0,-0.676 0.176,-1.16 0.536,-1.446 0.449,-0.371 1.109,-0.558 1.972,-0.558 l 3.086,0 0,-2.356 -19.191,0 0,2.356 2.937,0 c 1.012,0 1.723,0.172 2.137,0.508 0.414,0.336 0.621,0.839 0.621,1.496 l 0,28.672 c 0,0.707 -0.187,1.234 -0.57,1.57 -0.383,0.34 -0.977,0.512 -1.789,0.512 l -3.336,0 0,2.351 z m 55.238,-35.109 0,-2.356 -14.258,0 0,2.356 1.496,0 c 0.797,0 1.383,0.203 1.774,0.613 0.39,0.406 0.578,0.992 0.578,1.77 l 0,10.281 c 0,1.758 -0.395,3.105 -1.203,4.047 -0.805,0.933 -1.848,1.398 -3.153,1.398 -1.777,0 -3.218,-0.656 -4.336,-1.984 -1.113,-1.324 -1.667,-3.262 -1.667,-5.813 l 0,-7.929 c 0,-0.778 0.199,-1.364 0.597,-1.77 0.399,-0.41 0.91,-0.613 1.531,-0.613 l 1.801,0 0,-2.356 -14.797,0 0,2.356 1.93,0 c 0.742,0 1.305,0.203 1.688,0.613 0.378,0.406 0.566,0.992 0.566,1.77 l 0,14.113 c 0,0.805 -0.277,1.449 -0.828,1.934 -0.547,0.476 -1.27,0.718 -2.16,0.718 l -1.012,0 0,2.207 9.871,0.535 c 0.355,-1.453 0.625,-3.179 0.813,-5.195 1.386,1.875 2.863,3.274 4.437,4.199 1.566,0.938 3.223,1.403 4.961,1.403 2.363,0 4.23,-0.789 5.598,-2.36 1.355,-1.574 2.031,-3.754 2.031,-6.562 l 0,-10.992 c 0,-0.844 0.187,-1.45 0.578,-1.825 0.387,-0.371 1.004,-0.558 1.852,-0.558 l 1.312,0 z m 18.313,35.215 11.777,0.449 0,-30.996 c 0,-1.594 0.113,-2.664 0.32,-3.211 0.207,-0.551 0.535,-0.942 0.977,-1.192 0.437,-0.242 1.277,-0.363 2.531,-0.363 l 0,-2.258 -9.75,-0.3 -0.711,4.609 c -1.488,-1.949 -2.836,-3.234 -4.039,-3.875 -1.211,-0.641 -2.715,-0.969 -4.52,-0.969 -3.242,0 -5.886,1.09 -7.929,3.27 -2.051,2.179 -3.071,5.133 -3.071,8.871 0,4.117 1.083,7.383 3.243,9.805 2.16,2.41 4.851,3.621 8.062,3.621 1.719,0 3.25,-0.379 4.586,-1.133 1.352,-0.75 2.57,-1.969 3.668,-3.656 l 0,10.793 c 0,1.277 -0.121,2.199 -0.351,2.757 -0.247,0.559 -0.559,0.942 -0.954,1.157 -0.398,0.211 -1.211,0.312 -2.445,0.312 l -1.394,0 0,2.309 z m -0.813,-15.805 c -1.953,0 -3.414,-0.867 -4.375,-2.586 -0.797,-1.398 -1.191,-3.633 -1.191,-6.691 0,-2.555 0.214,-4.453 0.652,-5.707 0.445,-1.266 1.074,-2.2 1.887,-2.813 0.82,-0.621 1.758,-0.926 2.804,-0.926 1.719,0 3.102,0.739 4.149,2.2 1.41,1.925 2.109,4.39 2.109,7.402 0,2.781 -0.617,5.004 -1.824,6.644 -1.219,1.645 -2.621,2.477 -4.211,2.477 z m 27.918,15.621 c 1.133,0 2.102,-0.398 2.914,-1.203 0.813,-0.801 1.211,-1.77 1.211,-2.918 0,-1.152 -0.398,-2.129 -1.211,-2.934 -0.812,-0.793 -1.781,-1.199 -2.914,-1.199 -1.152,0 -2.125,0.406 -2.937,1.219 -0.817,0.809 -1.219,1.781 -1.219,2.914 0,1.148 0.402,2.117 1.219,2.918 0.812,0.805 1.785,1.203 2.937,1.203 z m -6.512,-13.676 10.543,0.485 0,-20.141 c 0,-0.543 0.172,-0.957 0.516,-1.25 0.348,-0.297 0.875,-0.449 1.586,-0.449 l 1.59,0 0,-2.356 -14.235,0 0,2.356 1.575,0 c 0.839,0 1.437,0.195 1.781,0.586 0.347,0.39 0.519,1.062 0.519,2.023 l 0,13.731 c 0,0.863 -0.25,1.531 -0.742,2.007 -0.5,0.465 -1.183,0.708 -2.07,0.708 l -1.063,0 0,2.3 z m 46.106,-20.769 1.062,-1.824 c -1.031,-0.707 -1.953,-1.204 -2.769,-1.473 -0.821,-0.266 -1.719,-0.402 -2.696,-0.402 -1.453,0 -2.628,0.308 -3.527,0.921 -0.891,0.618 -1.715,1.786 -2.457,3.489 -1.719,-1.703 -3.266,-2.871 -4.633,-3.489 -1.367,-0.613 -2.914,-0.921 -4.633,-0.921 -2.39,0 -4.238,0.55 -5.582,1.652 -1.328,1.086 -1.996,2.488 -1.996,4.176 0,2.55 1.231,4.59 3.7,6.129 1.972,1.218 6.304,2.429 13,3.648 l 0,3.414 c 0,1.359 -0.454,2.457 -1.352,3.313 -0.891,0.847 -2.09,1.277 -3.598,1.277 -1.148,0 -2.16,-0.246 -3.035,-0.731 -0.594,-0.324 -0.89,-0.652 -0.89,-0.972 0,-0.164 0.113,-0.422 0.328,-0.758 0.476,-0.754 0.711,-1.508 0.711,-2.25 0,-0.949 -0.313,-1.711 -0.934,-2.293 -0.621,-0.586 -1.461,-0.879 -2.508,-0.879 -1.113,0 -2.012,0.317 -2.687,0.949 -0.676,0.641 -1.012,1.453 -1.012,2.45 0,1.632 0.891,3.078 2.66,4.332 2.215,1.554 4.965,2.332 8.258,2.332 2.484,0 4.691,-0.391 6.609,-1.168 1.235,-0.493 2.239,-1.348 3.008,-2.575 0.766,-1.218 1.149,-2.734 1.149,-4.519 l 0,-12.031 c 0,-0.914 0.168,-1.571 0.511,-1.981 0.336,-0.402 0.793,-0.601 1.391,-0.601 0.484,0 1.133,0.257 1.922,0.785 z m -10.531,9.703 c -3.614,-0.496 -6.063,-1.246 -7.344,-2.266 -1.27,-1.019 -1.91,-2.371 -1.91,-4.047 0,-1.179 0.304,-2.086 0.898,-2.726 0.606,-0.629 1.445,-0.942 2.527,-0.942 1.668,0 3.059,0.598 4.164,1.797 1.11,1.196 1.665,2.84 1.665,4.914 l 0,3.27"
         style="fill:#ffffff;fill-opacity:1;fill-rule:nonzero;stroke:none"
         id="path4294"
         inkscape:connector-curvature="0" /></g></g></svg>