<?xml version="1.0" encoding="UTF-8" standalone="no"?>
<!-- Created with Inkscape (http://www.inkscape.org/) -->

<svg
   xmlns:dc="http://purl.org/dc/elements/1.1/"
   xmlns:cc="http://creativecommons.org/ns#"
   xmlns:rdf="http://www.w3.org/1999/02/22-rdf-syntax-ns#"
   xmlns:svg="http://www.w3.org/2000/svg"
   xmlns="http://www.w3.org/2000/svg"
   xmlns:sodipodi="http://sodipodi.sourceforge.net/DTD/sodipodi-0.dtd"
   xmlns:inkscape="http://www.inkscape.org/namespaces/inkscape"
   id="svg4202"
   version="1.1"
   inkscape:version="0.91 r13725"
   xml:space="preserve"
   width="58"
   height="34"
   viewBox="0 0 58 34"
   sodipodi:docname="mother-dairy.svg"><metadata
     id="metadata4208"><rdf:RDF><cc:Work
         rdf:about=""><dc:format>image/svg+xml</dc:format><dc:type
           rdf:resource="http://purl.org/dc/dcmitype/StillImage" /><dc:title></dc:title></cc:Work></rdf:RDF></metadata><defs
     id="defs4206" /><sodipodi:namedview
     pagecolor="#ffffff"
     bordercolor="#666666"
     borderopacity="1"
     objecttolerance="10"
     gridtolerance="10"
     guidetolerance="10"
     inkscape:pageopacity="0"
     inkscape:pageshadow="2"
     inkscape:window-width="1920"
     inkscape:window-height="1017"
     id="namedview4204"
     showgrid="false"
     fit-margin-top="0"
     fit-margin-left="0"
     fit-margin-right="0"
     fit-margin-bottom="0"
     inkscape:zoom="11.525424"
     inkscape:cx="28.94"
     inkscape:cy="6.7515008"
     inkscape:window-x="-8"
     inkscape:window-y="-8"
     inkscape:window-maximized="1"
     inkscape:current-layer="g4210" /><g
     id="g4210"
     inkscape:groupmode="layer"
     inkscape:label="ink_ext_XXXXXX"
     transform="matrix(1.25,0,0,-1.25,-18.56,64.123501)"><g
       id="g4212"
       transform="matrix(0.09988053,0,0,0.10079311,0.01773878,-0.19112973)"><path
         d="m 148.48,464.211 3.184,-13.867 c 0.191,-1.028 0.531,-2.215 0.805,-3.391 l 20.027,-87.523 c 0.16,-0.723 0.203,-1.203 0.348,-1.75 l 1.23,-5.325 c 2.078,-9.449 4.36,-18.64 6.387,-27.98 l 11.199,-48.867 c 2.141,-8.52 4.235,-19.973 6.367,-28 0.297,-1.117 0.571,-2.297 0.797,-3.399 0.383,-1.851 0.332,-3.121 1.332,-3.121 l 360.157,0 c 1.054,0 1.078,1.887 1.308,2.883 l 2.43,10.426 c 0.488,2.273 1.066,4.527 1.617,7.035 l 7.344,31.481 c 3.144,14.437 7.316,31.195 10.695,45.699 l 26.211,112.293 c 0.637,2.32 3.117,12.883 3.117,14.195 -4.98,2.633 -30.883,12.086 -37.41,14.262 -4.465,1.492 -8.527,2.789 -13.051,4.265 -137.851,44.938 -280.179,31.61 -414.094,-19.316"
         style="fill:#00adef;fill-opacity:1;fill-rule:evenodd;stroke:none"
         id="path4214"
         inkscape:connector-curvature="0" /><path
         d="m 543.055,267.43 -324.289,0.054 -40.578,179.461 c 27.519,11.313 62.882,21.594 92.519,27.446 69.023,13.632 150.707,13.652 219.918,0.98 16.668,-3.055 32.926,-6.992 48.574,-11.48 10.528,-3.024 23.516,-7.254 33.75,-11.121 1.848,-0.7 3.676,-1.379 5.535,-2.067 1.789,-0.656 3.719,-1.558 5.528,-2.082 -0.516,-3.848 -9.016,-40.078 -10.157,-45.238 -3.351,-15.18 -6.929,-30.219 -10.238,-45.36 -3.308,-15.164 -6.867,-30.175 -10.254,-45.378 -0.629,-2.817 -9.582,-43.575 -10.308,-45.215 z m -330.364,-8.129 336.129,-0.004 c 0.743,1.808 10.477,45.418 11.129,48.359 7.121,32.164 14.793,64.477 22.067,96.754 1.824,8.082 3.664,16.063 5.496,24.125 0.941,4.125 1.843,8.086 2.777,12.176 0.828,3.621 2.231,8.465 2.695,12.082 -3.257,2.523 -42.73,14.977 -47.05,16.262 -114.383,33.957 -241.746,30.82 -354.536,-7.696 -3.156,-1.078 -21.531,-7.418 -22.863,-8.574 l 44.156,-193.484"
         style="fill:#ffffff;fill-opacity:1;fill-rule:evenodd;stroke:none"
         id="path4216"
         inkscape:connector-curvature="0" /><path
         d="m 540.574,405.316 c -1.051,-8.367 -4.047,-12.441 -13.297,-10.554 -2.414,0.492 -8.027,1.867 -8.933,3.433 -0.762,1.321 4.375,16.914 5.191,19.309 1.293,3.793 3.344,4.312 7.602,2.894 5.879,-1.96 10.461,-6.937 9.437,-15.082 z M 392.43,435.594 c -0.114,-2.149 1.394,-1.989 3.172,-2.516 5.671,-1.683 4.296,-6.492 3.918,-11.504 -0.493,-6.539 -1,-13.14 -1.485,-19.672 -0.519,-6.964 0.41,-13.617 -5.637,-15.632 -5.16,-1.727 -13.929,-1.461 -17.007,1.941 -1.95,2.16 -1.59,5.953 -1.653,9.238 -0.062,3.481 -0.133,6.965 -0.203,10.489 -0.062,3.515 -0.125,6.96 -0.195,10.496 -0.238,12.175 -2.324,13.363 7.625,13.019 7.023,-0.242 5.476,-7.406 8.172,-7.848 2.051,-0.339 1.531,2.083 1.269,3.481 -0.508,2.684 -0.664,6.797 -1.465,8.977 -2.769,0.386 -17.418,-0.516 -21.621,-0.586 -2.89,-0.047 -21.261,0.316 -22.207,-0.278 -1.043,-0.801 -1.422,-9.23 -1.597,-10.761 -0.067,-0.547 -0.227,-1.364 -0.235,-1.852 -0.008,-0.481 0.071,-1.035 0.41,-1.313 2.567,-1.503 3.508,4.063 4.618,5.938 1.406,2.367 3.14,3.769 6.937,3.816 1.172,0.012 4.41,0.075 5.391,-0.14 1.582,-0.336 1.832,-1.586 1.929,-3.266 0.188,-3.414 0.133,-7.141 0.196,-10.555 0.129,-7.093 0.25,-14.113 0.355,-21.191 0.051,-3.605 0.586,-6.887 -1.695,-9.059 -2.461,-2.339 -6.848,-0.64 -5.953,-4.371 1.933,-0.914 12.015,0.184 15.261,0.18 4.809,-0.004 11.032,0.336 15.536,0.039 5.129,-0.34 10.32,-0.344 15.418,-0.59 2.652,-0.129 13.129,-1.41 14.683,-0.363 0.285,1.996 -1.793,1.961 -3.496,2.531 -6.234,2.09 -5.062,7.25 -4.676,12.934 0.836,12.242 -1.343,11.082 12.418,10.019 15.91,-1.226 14.133,0.953 13.41,-9.488 -0.296,-4.277 0.528,-12.469 -3.656,-14.519 -1.445,-0.704 -3.453,-0.782 -2.804,-2.567 0.542,-0.746 5.066,-0.832 5.914,-0.933 25.371,-2.981 48.511,-6.161 73.101,-13.735 2.348,-0.723 8.07,-3.191 9.942,-2.055 0.828,4.875 -9.09,0.434 -5.157,13.586 0.793,2.661 1.617,5.309 2.45,8.043 0.703,2.305 1.375,6.137 2.761,7.664 2,0.375 6.031,-1.136 7.324,-2.058 1.891,-1.352 2.489,-3.367 3.059,-6.367 1.004,-5.25 2.043,-10.36 3.043,-15.598 1.09,-5.723 2.348,-9.965 6.289,-12.34 3.031,-1.824 14.078,-3.437 13.039,1.82 -3.289,1.715 -5.379,-0.816 -6.515,4.442 -0.629,2.914 -1.309,5.781 -2.004,8.754 -0.688,2.929 -3.996,16.015 -3.797,17.996 1.215,0.871 3.5,1.066 5.008,1.566 12.609,4.18 13.031,20.942 2.535,27.985 -7.473,5.011 -19.84,6.867 -28.934,9.89 -1.976,0.657 -7.937,3.66 -9.574,2.266 -1.766,-3.551 8.836,-2.813 6.371,-12.359 -1.293,-5 -3.168,-10.524 -4.711,-15.497 -1.625,-5.218 -3.105,-10.289 -4.719,-15.48 -4.406,-14.199 -4.125,-17.762 -23.199,-11.809 -7.453,2.332 -9.73,2.852 -8.43,10.864 2.075,12.797 0.657,13.91 6.5,12.914 2.813,-0.485 5.961,-0.785 7.579,-2.395 1.925,-1.922 1.328,-5.074 2.582,-7.347 2.386,-0.305 2.007,1.503 2.32,3.582 0.398,2.683 3.582,13.296 2.32,14.644 -0.683,0.727 -1.555,0.316 -2.273,-0.508 -0.559,-0.636 -0.848,-1.097 -1.446,-1.699 -5.437,-5.492 -14.046,-1.332 -14.296,-0.875 -0.395,1.75 1.011,8.957 1.359,11.16 0.754,4.785 0.031,7.422 5.48,6.766 19.348,-2.324 12.438,-8.195 14.36,-10.848 2.437,-1.98 2.828,2.262 3.187,4.153 1.461,7.734 3.024,7.359 -5.269,8.464 -2.418,0.321 -4.77,0.59 -7.231,0.907 -7.23,0.918 -14.121,2.144 -21.222,3.418 -2.235,0.398 -5.153,1.449 -6.332,0.027 -0.274,-4.035 8.421,-1.481 7.082,-9.719 l -4.766,-29.879 c -0.934,-5.847 -0.703,-9.629 -7.195,-10.054 -4.196,-0.282 -9.59,2.289 -10.223,6.964 -0.422,3.106 0.773,12.602 1.059,16.274 0.265,3.379 1.238,21.367 2.191,23.816 1.02,2.629 3.109,1.961 5.211,3.098 0.383,2.668 -2.309,1.918 -8.168,2.25 -1.457,0.082 -14.277,1.418 -14.867,1.184 -0.946,-0.372 -1.473,-1.602 1.586,-2.461 7.156,-2.016 4.867,-8.161 4.343,-16.086 -0.328,-5.004 -1.375,-4.692 -6.128,-4.328 -3.387,0.253 -6.707,0.503 -10.082,0.757 -11.946,0.907 -9.918,-1.648 -8.825,14.453 0.598,8.739 5.332,4.676 6.352,7.747 -0.625,1.769 -3.293,1.253 -5.422,1.273 -2.187,0.02 -4.426,0.062 -6.562,0.215 -3.352,0.242 -9.415,1.547 -12.133,0.461"
         style="fill:#ffffff;fill-opacity:1;fill-rule:evenodd;stroke:none"
         id="path4218"
         inkscape:connector-curvature="0" /><path
         d="m 346.156,337.781 c 0.231,-0.238 7.074,-15.031 7.199,-15.98 0.211,-1.571 0.02,-0.871 -0.296,-1.211 -0.961,-0.449 -7.664,-0.129 -9.348,-0.129 -4.598,0 -5.563,-0.75 -3.648,3.781 1.054,2.496 4.906,12.086 6.093,13.539 z m 90.231,-5.648 c -0.711,-6.149 -8.051,-6.113 -12.942,-5.781 -3.797,0.25 -3.004,1.535 -3.004,6.304 0,3.149 0.004,6.297 -0.007,9.446 -0.008,3.351 0.293,5.359 3.793,5.554 3.16,0.18 5.461,-0.363 7.664,-1.847 3.406,-2.297 5.187,-7.746 4.496,-13.676 z m -63.133,18.472 c -0.727,-4.699 8.348,0.622 8.316,-9.554 -0.015,-6.188 0.325,-31.938 -0.082,-35.668 -0.617,-5.653 -7.031,-6.746 -9.593,-1.727 -1.954,3.824 -3.77,8.508 -5.543,12.559 l -14.985,34.066 c -0.59,1.34 -0.773,2.028 -2.48,2.035 -2.293,-2.511 -10.934,-23.242 -13.098,-28.003 -2.207,-4.86 -4.242,-9.329 -6.316,-14.141 -1.864,-4.313 -2.598,-7.492 -6.063,-9.414 -1.172,-0.656 -2.547,-0.926 -1.996,-2.406 1.586,-0.829 7.422,0.046 9.711,-0.039 1.645,-0.063 8.855,-0.895 9.559,0.152 1.531,3.93 -10.282,-0.43 -6.797,10.441 2.804,8.735 3.484,7.356 11.398,7.356 1.688,0 8.168,0.238 9.285,-0.278 1.297,-0.593 6.145,-9.906 4.321,-13.187 -1.114,-2 -5.809,-2.645 -4.086,-4.442 1.183,-0.917 7.187,-0.07 9.105,-0.031 3.113,0.067 6.106,-0.156 9.18,-0.269 6.156,-0.223 12.328,0.367 18.629,0.195 6.172,-0.168 12.156,-0.215 18.347,-0.078 5.493,0.121 8.477,0.312 13.946,-0.074 1.633,-0.114 3.043,-0.321 3.773,0.797 -0.097,3.593 -7.285,-0.723 -7.351,8.316 -0.016,2.07 -0.516,14.363 0.66,15.234 1.383,0.68 3.933,0.52 5.375,-0.148 1.469,-0.68 2.066,-1.734 2.89,-3.145 1.426,-2.449 3.094,-4.832 4.661,-7.148 l 4.765,-7.297 c 6.606,-9.019 16.383,-7.055 28.383,-6.574 3.957,0.16 7.93,0.246 11.895,0.203 2.281,-0.027 9.558,-0.793 11.003,0.219 0.446,3.133 -4.32,1.547 -6.793,3.156 -2.289,1.484 -2.242,4.414 -2.238,7.863 0.008,9.848 -1.109,9.473 2.992,17.071 2.262,4.199 8.032,16.054 10.766,19.132 0.801,0.907 1.527,1.629 2.652,2.332 4.567,2.852 0.746,2.864 -2.371,2.68 -3.301,-0.191 -13.34,0.305 -13.871,-0.82 -0.172,-1.84 1.192,-1.766 2.985,-2.231 6.058,-1.558 4.339,-4.914 2.085,-9.179 -1.187,-2.239 -2.367,-4.399 -3.625,-6.602 l -3.511,-6.379 c -1.285,0.266 -1.598,1.449 -2.258,2.797 -1.418,2.895 -7.52,15.063 -7.902,16.758 -1.024,4.558 4.761,2.25 3.679,5.527 -1.203,0.504 -9.238,-0.039 -11.429,-0.035 -2.551,0.004 -9.289,0.809 -10.95,-0.145 -0.074,-1.738 0.485,-1.667 1.977,-2.136 1.078,-0.336 1.918,-0.633 2.734,-1.207 2.774,-1.934 7.18,-11.477 8.907,-14.696 7.019,-13.093 7.074,-10.851 6.726,-24.976 -0.152,-6.098 -3.391,-6.848 -9.394,-6.664 -5.829,0.176 -8,1.242 -10.782,5.078 -2.226,3.07 -11.754,16.062 -12.695,18.644 1.52,1.891 8.641,4.032 9.348,11.278 0.621,6.297 -3.754,10.984 -7.575,12.926 -6.933,3.523 -19.39,1.699 -28.398,1.941 -2.484,0.066 -7.707,1.105 -9.055,-0.512 0.012,-3.64 7.84,0.102 8.047,-8.57 0.129,-5.445 0,-11.07 0,-16.535 0,-5.473 0.125,-11.082 0,-16.531 -0.125,-5.625 -2.984,-7.54 -8.262,-8.309 -2.085,-0.305 -5.511,0.242 -7.14,1.082 -1.848,0.957 -2.922,2.527 -3.07,5.383 -0.379,7.215 -0.016,24.676 -0.016,33.062 0,2.492 -0.324,5.746 1.18,7.301 1.156,1.199 5.429,1.582 4.058,3.344 -1.113,1.285 -9.488,0.265 -11.711,0.246 -3.14,-0.024 -9.48,0.824 -11.902,-0.024"
         style="fill:#ffffff;fill-opacity:1;fill-rule:evenodd;stroke:none"
         id="path4220"
         inkscape:connector-curvature="0" /><path
         d="m 271.5,369.324 c 1.887,-0.629 8.461,1.324 10.883,1.828 3.586,0.754 7.238,1.364 10.797,2.051 1.695,0.324 4.156,0.594 3.972,2.399 -0.394,3.878 -7.496,-2.582 -11.312,8.039 -1.496,4.164 -4.539,15.062 -5.985,19.976 -1.957,6.668 -3.867,13.207 -5.89,19.817 -1.332,4.351 -2.168,7.05 1.023,9.945 0.981,0.887 3.289,1.746 3.735,2.851 0.968,2.387 -2.371,1.391 -3.629,0.981 -1.641,-0.531 -3.125,-1.27 -4.809,-1.738 -6.531,-1.801 -5.898,0.5 -7.14,-6.008 -0.95,-5.008 -8.36,-46.199 -9.364,-48.512 -1.793,0.246 -4.191,4.012 -5.789,5.762 l -21.312,24.859 c -1.008,1.196 -1.68,1.938 -2.676,3.09 -5.711,6.582 -4.465,6.399 -10.461,4.356 -6.172,-2.102 -4.344,-1.165 -8.922,-2.383 -1.945,-0.516 -1.371,-2.649 0.719,-3.02 1.91,-0.34 3.144,-0.082 4.957,-0.855 2.457,-1.051 4.109,-3.637 5.098,-6.434 1.746,-4.922 7.328,-29.789 9.109,-37.062 0.711,-2.918 1.992,-6.672 0.898,-9.582 -1.336,-3.555 -5.086,-3.176 -4.304,-6.688 1.695,-0.59 9.027,2.973 11.148,3.777 1.848,0.7 3.598,1.348 5.594,2.012 3.375,1.113 4.465,1.074 3.863,3.293 -3.035,1.57 -6.949,-2.582 -10.633,3.258 -1.898,3 -2.664,7.242 -3.593,11.086 -0.942,3.887 -5.825,21.305 -5.282,23.98 1.664,-0.004 2.914,-2.121 4.633,-4.148 1.379,-1.629 2.52,-3.094 3.957,-4.707 1.317,-1.484 2.621,-3.199 3.926,-4.738 1.336,-1.586 2.57,-2.946 3.863,-4.528 1.356,-1.664 2.676,-3.015 3.969,-4.683 2.695,-3.473 6.789,-7.86 9.711,-11.535 3.621,-4.563 3.355,0.851 5.137,10.16 2.074,10.808 4.617,26 6.988,35.777 1.871,-0.516 2.262,-2.941 2.789,-4.789 1.648,-5.762 7.516,-24.445 8.211,-27.977 1.465,-7.441 -5.098,-5.972 -3.879,-9.91"
         style="fill:#ffffff;fill-opacity:1;fill-rule:evenodd;stroke:none"
         id="path4222"
         inkscape:connector-curvature="0" /><path
         d="m 301.363,408.203 c -0.386,6.488 0.93,12.301 4.371,15.68 3.094,3.043 9.645,5.344 15.512,3.551 9.781,-2.981 14.203,-13.938 14.699,-26.317 0.262,-6.562 -1.054,-11.98 -4.672,-15.629 -2.941,-2.965 -9.839,-5.429 -15.621,-3.773 -9.007,2.586 -13.601,14.875 -14.289,26.488 z m 45.047,-7.086 c 2.313,17.613 -8.07,30.375 -24.07,31.328 -7.879,0.473 -16.852,-2.445 -21.488,-6.3 -5.629,-4.688 -8.973,-9.918 -9.879,-17.954 -1.969,-17.367 8.062,-30.48 23.879,-31.535 8.75,-0.586 16.308,2.356 21.828,6.313 5.441,3.902 8.808,11.179 9.73,18.148"
         style="fill:#ffffff;fill-opacity:1;fill-rule:evenodd;stroke:none"
         id="path4224"
         inkscape:connector-curvature="0" /><path
         d="m 292.367,347.949 c 5.313,0.656 11.008,-1.14 14.461,-3.652 11.492,-8.359 11.867,-31.317 1.461,-39.692 -3.266,-2.628 -9.223,-4.386 -14.68,-3.449 -6.812,1.168 -5.199,6.766 -5.199,13.399 0,8.633 -0.207,19.64 0.012,28.078 0.094,3.582 0.531,4.894 3.945,5.316 z m 33.93,-24.922 c 0.879,8.895 -1.09,15.621 -7.137,21.274 -9.754,9.113 -30.015,5.918 -43.129,6.453 -1.414,0.059 -5.953,0.879 -4.992,-1.57 0.742,-1.891 7.18,-0.309 7.399,-7.071 0.257,-8.047 0,-20.086 0,-28.605 0,-3.856 1.039,-10.578 -2.036,-12.172 -0.816,-0.422 -2.004,-0.555 -2.695,-0.984 -0.781,-0.481 -1.117,-1.676 -0.152,-2.153 0.875,-0.433 5.418,-0.039 6.672,0.039 13.742,0.828 23.214,-3.238 36.007,6.285 4.711,3.512 9.2,9.766 10.063,18.504"
         style="fill:#ffffff;fill-opacity:1;fill-rule:evenodd;stroke:none"
         id="path4226"
         inkscape:connector-curvature="0" /></g></g></svg>
